<?xml version="1.0" encoding="us-ascii" standalone="no"?><svg xmlns="http://www.w3.org/2000/svg" xmlns:xlink="http://www.w3.org/1999/xlink" contentStyleType="text/css" height="585px" preserveAspectRatio="none" style="width:802px;height:585px;background:#2A2A2A;" version="1.1" viewBox="0 0 802 585" width="802px" zoomAndPan="magnify"><defs/><g><rect fill="#2A2A2A" height="585" style="stroke:none;stroke-width:1.0;" width="802" x="0" y="0"/><!--cluster Kernel space--><g id="cluster_Kernel space"><path d="M571.5,200.602 L659.5,200.602 A3.75,3.75 0 0 1 662,203.102 L669,225.6699 L792.5,225.6699 A2.5,2.5 0 0 1 795,228.1699 L795,330.102 A2.5,2.5 0 0 1 792.5,332.602 L571.5,332.602 A2.5,2.5 0 0 1 569,330.102 L569,203.102 A2.5,2.5 0 0 1 571.5,200.602 " fill="#888888" style="stroke:#000000;stroke-width:1.5;"/><line style="stroke:#000000;stroke-width:1.5;" x1="569" x2="669" y1="225.6699" y2="225.6699"/><text fill="#000000" font-family="sans-serif" font-size="14" lengthAdjust="spacing" textLength="87" x="573" y="217.5679">Kernel space</text></g><!--cluster User space--><g id="cluster_User space"><path d="M8.5,82.602 L83.5,82.602 A3.75,3.75 0 0 1 86,85.102 L93,107.6699 L396.5,107.6699 A2.5,2.5 0 0 1 399,110.1699 L399,230.102 A2.5,2.5 0 0 1 396.5,232.602 L8.5,232.602 A2.5,2.5 0 0 1 6,230.102 L6,85.102 A2.5,2.5 0 0 1 8.5,82.602 " fill="#888888" style="stroke:#000000;stroke-width:1.5;"/><line style="stroke:#000000;stroke-width:1.5;" x1="6" x2="93" y1="107.6699" y2="107.6699"/><text fill="#000000" font-family="sans-serif" font-size="14" lengthAdjust="spacing" textLength="74" x="10" y="99.5679">User space</text></g><!--entity R--><g id="elem_R"><rect fill="#B6F5B0" height="77.2038" rx="5" ry="5" style="stroke:#000000;stroke-width:0.5;" width="194" x="585" y="239.102"/><text fill="#000000" font-family="sans-serif" font-size="14" lengthAdjust="spacing" textLength="117" x="595" y="264.0679">&#129504; Risorsa UNIX IPC</text><text fill="#000000" font-family="sans-serif" font-size="14" lengthAdjust="spacing" textLength="138" x="595" y="283.1358">(es. Shared Memory)</text><text fill="#000000" font-family="sans-serif" font-size="14" lengthAdjust="spacing" textLength="174" x="595" y="302.2038">Tabella risorse / permessi</text></g><!--entity P1--><g id="elem_P1"><rect fill="#4A90E2" height="96.2717" rx="5" ry="5" style="stroke:#000000;stroke-width:0.5;" width="150" x="22" y="120.602"/><text fill="#000000" font-family="sans-serif" font-size="14" lengthAdjust="spacing" textLength="96" x="32" y="145.5679">&#9881;&#65039; Processo P1</text><text fill="#000000" font-family="sans-serif" font-size="14" lengthAdjust="spacing" textLength="130" x="32" y="164.6358">id = shmget(key, ...)</text><text fill="#000000" font-family="sans-serif" font-size="14" lengthAdjust="spacing" textLength="119" x="32" y="183.7038">ptr = shmat(id, ...)</text><text fill="#000000" font-family="sans-serif" font-size="14" lengthAdjust="spacing" textLength="56" x="32" y="202.7717">usa *ptr</text></g><!--entity P2--><g id="elem_P2"><rect fill="#4A90E2" height="96.2717" rx="5" ry="5" style="stroke:#000000;stroke-width:0.5;" width="150" x="233" y="120.602"/><text fill="#000000" font-family="sans-serif" font-size="14" lengthAdjust="spacing" textLength="96" x="243" y="145.5679">&#9881;&#65039; Processo P2</text><text fill="#000000" font-family="sans-serif" font-size="14" lengthAdjust="spacing" textLength="130" x="243" y="164.6358">id = shmget(key, ...)</text><text fill="#000000" font-family="sans-serif" font-size="14" lengthAdjust="spacing" textLength="119" x="243" y="183.7038">ptr = shmat(id, ...)</text><text fill="#000000" font-family="sans-serif" font-size="14" lengthAdjust="spacing" textLength="56" x="243" y="202.7717">usa *ptr</text></g><!--link P1 to P2--><!--link P1 to R--><g id="link_P1_R"><path d="M145.12,216.732 C169.24,238.162 200.36,261.292 233,273.602 C347.99,316.972 485.7473,309.1593 578.9173,296.1893 " fill="none" id="P1-to-R" style="stroke:#FFFFFF;stroke-width:2.0;"/><polygon fill="#FFFFFF" points="584.86,295.362,575.3944,292.6411,579.9078,296.0514,576.4975,300.5647,584.86,295.362" style="stroke:#FFFFFF;stroke-width:2.0;"/><text fill="#FFFFFF" font-family="sans-serif" font-size="14" lengthAdjust="spacing" textLength="52" x="282" y="249.5679">get(key)</text><text fill="#FFFFFF" font-family="sans-serif" font-size="14" lengthAdjust="spacing" textLength="59" x="278.5" y="268.6358">(shmget)</text></g><!--link P1 to R--><g id="link_P1_R"><path d="M117.58,216.662 C138.7,261.342 177,325.142 233,353.602 C354.32,415.262 510.1126,361.8486 602.3926,318.7986 " fill="none" id="P1-to-R-1" style="stroke:#FFFFFF;stroke-width:2.0;stroke-dasharray:7.0,7.0;"/><polygon fill="#FFFFFF" points="607.83,316.262,597.9828,316.442,603.2988,318.3758,601.365,323.6919,607.83,316.262" style="stroke:#FFFFFF;stroke-width:2.0;"/><text fill="#FFFFFF" font-family="sans-serif" font-size="14" lengthAdjust="spacing" textLength="42" x="287" y="329.5679">attach</text><text fill="#FFFFFF" font-family="sans-serif" font-size="14" lengthAdjust="spacing" textLength="50" x="283" y="348.6358">(shmat)</text></g><!--link P1 to R--><g id="link_P1_R"><path d="M109.16,216.642 C125.44,274.412 161.85,368.822 233,410.602 C356.01,482.842 423.64,445.752 553,385.602 C588.46,369.112 617.7429,344.3802 641.5829,320.5902 " fill="none" id="P1-to-R-2" style="stroke:#FFFFFF;stroke-width:2.0;"/><polygon fill="#FFFFFF" points="645.83,316.352,636.6339,319.8779,642.2908,319.8838,642.2848,325.5407,645.83,316.352" style="stroke:#FFFFFF;stroke-width:2.0;"/><text fill="#FFFFFF" font-family="sans-serif" font-size="14" lengthAdjust="spacing" textLength="56" x="280" y="405.5679">usa *ptr</text></g><!--link P1 to R--><g id="link_P1_R"><path d="M101.55,216.862 C109.99,292.022 138.31,435.032 233,498.602 C352.4,578.762 436.43,534.832 553,450.602 C602.06,415.152 637.4087,360.5549 658.8587,321.3749 " fill="none" id="P1-to-R-3" style="stroke:#FFFFFF;stroke-width:2.0;"/><polygon fill="#FFFFFF" points="661.74,316.112,653.9095,322.0855,659.3389,320.4977,660.9267,325.9272,661.74,316.112" style="stroke:#FFFFFF;stroke-width:2.0;"/><text fill="#FFFFFF" font-family="sans-serif" font-size="14" lengthAdjust="spacing" textLength="37" x="289.5" y="474.5679">ctl(id,</text><text fill="#FFFFFF" font-family="sans-serif" font-size="14" lengthAdjust="spacing" textLength="136" x="240" y="493.6358">IPC_RMID/SET/STAT)</text></g><!--link P2 to R--><g id="link_P2_R"><path d="M344.78,120.392 C363.18,99.662 387.52,77.682 415,66.602 C471.89,43.682 499.55,36.512 553,66.602 C618.52,103.492 652.5274,183.2587 668.5974,233.3587 " fill="none" id="P2-to-R" style="stroke:#FFFFFF;stroke-width:2.0;"/><polygon fill="#FFFFFF" points="670.43,239.072,671.49,229.2803,668.9028,234.3109,663.8723,231.7238,670.43,239.072" style="stroke:#FFFFFF;stroke-width:2.0;"/><text fill="#FFFFFF" font-family="sans-serif" font-size="14" lengthAdjust="spacing" textLength="52" x="458" y="23.5679">get(key)</text><text fill="#FFFFFF" font-family="sans-serif" font-size="14" lengthAdjust="spacing" textLength="59" x="454.5" y="42.6358">(shmget)</text></g><!--link P2 to R--><g id="link_P2_R"><path d="M383.07,144.172 C432.95,131.912 499.2,123.952 553,146.602 C597.25,165.232 630.3361,202.5842 652.9061,234.0942 " fill="none" id="P2-to-R-1" style="stroke:#FFFFFF;stroke-width:2.0;stroke-dasharray:7.0,7.0;"/><polygon fill="#FFFFFF" points="656.4,238.972,654.4111,229.326,653.4884,234.9072,647.9073,233.9845,656.4,238.972" style="stroke:#FFFFFF;stroke-width:2.0;"/><text fill="#FFFFFF" font-family="sans-serif" font-size="14" lengthAdjust="spacing" textLength="42" x="463" y="108.5679">attach</text><text fill="#FFFFFF" font-family="sans-serif" font-size="14" lengthAdjust="spacing" textLength="50" x="459" y="127.6358">(shmat)</text></g><!--link P2 to R--><g id="link_P2_R"><path d="M383.19,173.832 C432.38,178.902 497.8,188.732 553,207.602 C576.01,215.472 594.5355,224.3316 615.2355,236.0216 " fill="none" id="P2-to-R-2" style="stroke:#FFFFFF;stroke-width:2.0;"/><polygon fill="#FFFFFF" points="620.46,238.972,614.5903,231.0634,616.1063,236.5133,610.6564,238.0293,620.46,238.972" style="stroke:#FFFFFF;stroke-width:2.0;"/><text fill="#FFFFFF" font-family="sans-serif" font-size="14" lengthAdjust="spacing" textLength="56" x="456" y="173.5679">usa *ptr</text></g><!--link P2 to R--><g id="link_P2_R"><path d="M377.92,216.682 C388.16,225.122 398.21,234.222 407,243.602 C411.38,248.282 409.48,252.352 415,255.602 C443.09,272.162 514.701,277.0545 578.891,278.2045 " fill="none" id="P2-to-R-3" style="stroke:#FFFFFF;stroke-width:2.0;"/><polygon fill="#FFFFFF" points="584.89,278.312,575.9631,274.1514,579.8908,278.2224,575.8198,282.1501,584.89,278.312" style="stroke:#FFFFFF;stroke-width:2.0;"/><text fill="#FFFFFF" font-family="sans-serif" font-size="14" lengthAdjust="spacing" textLength="37" x="465.5" y="231.5679">ctl(id,</text><text fill="#FFFFFF" font-family="sans-serif" font-size="14" lengthAdjust="spacing" textLength="136" x="416" y="250.6358">IPC_RMID/SET/STAT)</text></g><!--SRC=[hPFVZj905CRl-nGdxCM2aGBDQdIJDK6sQBCBIzfYJCIOQJkq4wOpP6R81epFuBNUw9sluFFu0le8da9XYxiIit5wrVFd-tvpUdeCP_SxrZ6SCv8gakVa5FfyeRM4XM6ShLOI5DDIQGBUg0VrOAaDpU4L12y73UoxhwDbv1oCX4WQ8tD8cAAnOL9OgDdS7GX2xzA35twtx_MyIiBICoRc18aX8l4iLN8XafxaKi6HGufdEgtKpB66f1JUMm3FfKgesjH671D5x4-D9-k36W1zAKnWbfo2a2edtFfG4IweYKZvtwNzZQeIL46dNUfLIwfoNQNazLhgfkewOuPkETYAGkS4tqhEQNam4cOidWcgDJYekJ_62zSVkfSGZBezjph5xLng5nG1EMWCqDeQuEPcFX0DjLzVldq5lro5yT1xNUp3HDIfjY78YA8936WkrR8n4I69AEUat1mABPXJbICQgy5Hz7ZwA6hVGXm7hdy0SAnnVXKyJgUcs1_5qinKrgSAFkgioNzy_lJp-qSOAHdJOh57dObW2Po1plAKclgCBX-2RTi8FZTg4oUcpf9jT84tVe0fX3yXJzlKsNTnxdPn_eCBtg3v9cD9GiNR9ahUcbhlQZXqWy2x6kxz7KLVynb-kLEebUReKD-WD6f5thRBF366nDacIyhahda7jHUD3I_09m9Nu9q_yCvRWHksWh0ROhk50pbixXmoT-uqT_xH_3S0]--></g></svg>